<svg version="1.0" xmlns="http://www.w3.org/2000/svg"
 width="900.000000pt" height="477.000000pt" viewBox="0 0 900.000000 477.000000"
 preserveAspectRatio="xMidYMid meet">
 <title>Colby College Logo</title>
<g transform="translate(0.000000,477.000000) scale(0.100000,-0.100000)"
fill="#002878" stroke="none">
<path d="M4715 4489 c-71 -4 -159 -12 -195 -18 -36 -6 -105 -13 -153 -17 -80
-6 -90 -9 -99 -30 -20 -43 -7 -51 99 -56 143 -8 191 -35 226 -126 16 -39 17
-156 17 -1320 0 -1169 -1 -1283 -17 -1350 -27 -116 -85 -160 -213 -161 -37 -1
-71 -6 -78 -13 -18 -18 -14 -46 7 -58 13 -6 179 -10 470 -10 441 0 450 0 456
20 3 11 3 29 0 40 -5 17 -15 20 -64 20 -109 0 -181 36 -222 110 -12 21 -14
272 -17 1495 -2 1149 -5 1471 -15 1477 -13 9 -16 8 -202 -3z"/>
<path d="M5615 4489 c-66 -4 -149 -12 -185 -18 -36 -6 -101 -14 -145 -18 l-80
-8 0 -35 0 -35 65 -6 c145 -15 200 -49 219 -139 8 -35 11 -482 11 -1449 0
-1168 2 -1400 14 -1410 34 -28 288 -56 511 -56 203 0 275 8 425 47 85 22 87
22 194 73 244 114 423 318 494 563 38 130 45 177 44 298 0 165 -27 282 -98
429 -161 331 -518 506 -854 419 -123 -32 -255 -101 -333 -175 -22 -22 -46 -39
-54 -39 -11 0 -13 134 -13 773 0 588 -3 776 -12 785 -13 13 -22 13 -203 1z
m797 -1486 c155 -56 312 -230 372 -413 43 -132 50 -184 50 -350 -1 -165 -7
-214 -50 -358 -59 -197 -205 -363 -384 -435 -94 -38 -156 -49 -275 -50 -115 0
-124 1 -173 28 -37 20 -62 43 -85 79 l-32 51 -3 600 c-2 330 0 610 3 621 7 30
118 140 180 179 54 34 121 61 170 69 53 8 176 -3 227 -21z"/>
<path d="M1230 4285 c-166 -22 -272 -55 -425 -129 -218 -106 -390 -260 -532
-475 -57 -86 -163 -297 -163 -325 0 -8 -4 -17 -9 -21 -5 -3 -12 -20 -16 -38
-4 -17 -12 -50 -20 -72 -18 -55 -42 -174 -55 -270 -13 -105 -13 -415 1 -507
13 -83 45 -228 61 -273 79 -223 180 -390 322 -530 39 -38 82 -79 96 -90 46
-37 164 -113 225 -144 98 -49 116 -56 290 -111 117 -37 403 -50 551 -25 55 9
113 20 129 25 250 74 389 153 546 309 88 89 195 232 218 295 16 41 48 34 60
-12 31 -112 131 -271 233 -368 67 -64 191 -146 263 -175 17 -6 39 -15 50 -20
22 -9 80 -24 160 -41 82 -17 357 -4 439 21 158 47 285 123 397 238 123 127
190 249 241 438 21 80 17 413 -6 490 -75 251 -192 417 -381 540 -219 143 -469
184 -755 125 -30 -6 -59 -16 -64 -21 -6 -5 -17 -9 -26 -9 -32 0 -167 -73 -245
-132 -141 -108 -248 -256 -303 -423 -40 -123 -52 -190 -59 -325 -7 -133 -25
-181 -125 -330 -140 -210 -327 -355 -540 -419 -265 -80 -515 -62 -744 55 -45
22 -88 46 -95 52 -158 128 -231 209 -310 342 -47 78 -119 238 -119 263 0 7 -3
17 -7 21 -18 18 -60 201 -83 366 -46 323 -10 699 93 960 32 84 115 240 136
260 4 3 24 28 45 55 126 160 305 270 521 319 101 23 325 22 436 -3 205 -45
343 -129 457 -278 65 -85 137 -227 172 -338 45 -141 44 -140 81 -140 l34 0 0
425 0 425 -28 3 c-20 3 -35 -5 -60 -32 -19 -19 -46 -40 -61 -46 -50 -19 -142
-11 -291 24 -354 84 -526 100 -735 71z m2246 -1221 c109 -23 178 -58 250 -129
71 -69 121 -145 154 -230 12 -33 26 -69 30 -80 18 -44 40 -167 51 -279 20
-201 -10 -433 -77 -603 -56 -142 -167 -273 -274 -325 -74 -35 -134 -48 -224
-48 -148 0 -266 50 -362 151 -42 46 -124 167 -124 186 0 3 -6 19 -14 36 -54
120 -79 271 -78 477 0 361 94 616 277 752 73 54 119 74 210 92 92 19 91 19
181 0z"/>
<path d="M7061 3096 c-8 -9 -8 -21 -2 -38 8 -22 18 -26 70 -31 136 -15 196
-77 291 -302 58 -135 62 -145 86 -205 9 -25 30 -73 46 -108 15 -35 28 -66 28
-69 0 -3 6 -19 14 -36 7 -18 21 -52 31 -77 17 -41 43 -103 65 -155 4 -11 25
-60 45 -110 20 -49 43 -106 51 -125 17 -39 24 -55 50 -120 15 -40 37 -93 64
-155 4 -11 18 -45 30 -75 11 -30 25 -64 30 -75 41 -91 50 -117 50 -139 0 -23
-58 -211 -80 -261 -5 -11 -39 -110 -76 -220 -70 -213 -108 -293 -172 -365 -74
-85 -180 -115 -302 -87 -40 10 -69 12 -74 6 -6 -5 -13 -78 -16 -161 -7 -193
-10 -188 112 -188 55 0 108 6 138 16 102 33 188 141 261 324 12 30 28 69 35
87 8 17 14 35 14 40 0 5 25 86 55 179 73 223 131 402 195 604 29 91 56 174 60
185 4 11 21 63 38 115 16 52 47 149 67 215 21 66 55 172 75 235 21 63 61 189
90 280 29 91 59 179 66 197 8 17 14 36 14 43 0 24 64 197 97 265 73 148 160
227 261 241 44 5 53 10 58 30 14 55 19 54 -296 54 -315 0 -310 1 -296 -54 4
-18 15 -25 43 -31 65 -12 100 -40 118 -96 16 -46 16 -55 0 -127 -9 -42 -22
-95 -30 -117 -7 -22 -28 -87 -45 -145 -18 -58 -43 -136 -55 -175 -13 -38 -33
-104 -45 -145 -12 -41 -26 -84 -30 -95 -5 -11 -18 -54 -31 -95 -51 -171 -85
-265 -94 -264 -11 1 -33 43 -65 124 -11 30 -25 64 -29 75 -5 11 -17 40 -27 65
-9 25 -25 63 -34 85 -9 22 -23 56 -30 75 -7 19 -22 55 -32 80 -11 25 -23 54
-28 65 -4 11 -18 45 -30 75 -11 30 -25 64 -30 75 -30 73 -80 198 -95 240 -10
28 -22 55 -27 62 -5 6 -9 39 -10 72 -1 83 31 131 110 166 29 13 33 19 30 47
l-3 33 -396 3 c-329 2 -398 0 -408 -12z"/>
</g>
</svg>
