<svg width=0 height=0 class=svg-sprite display=none>
  <symbol id=colby-logo viewBox="0 0 900.000000 477.000000">
    <title>Colby College Logo</title>
    <g transform="translate(0.000000,477.000000) scale(0.100000,-0.100000)"
    fill="currentColor" stroke="none">
    <path d="M4715 4489 c-71 -4 -159 -12 -195 -18 -36 -6 -105 -13 -153 -17 -80
    -6 -90 -9 -99 -30 -20 -43 -7 -51 99 -56 143 -8 191 -35 226 -126 16 -39 17
    -156 17 -1320 0 -1169 -1 -1283 -17 -1350 -27 -116 -85 -160 -213 -161 -37 -1
    -71 -6 -78 -13 -18 -18 -14 -46 7 -58 13 -6 179 -10 470 -10 441 0 450 0 456
    20 3 11 3 29 0 40 -5 17 -15 20 -64 20 -109 0 -181 36 -222 110 -12 21 -14
    272 -17 1495 -2 1149 -5 1471 -15 1477 -13 9 -16 8 -202 -3z"></path>
    <path d="M5615 4489 c-66 -4 -149 -12 -185 -18 -36 -6 -101 -14 -145 -18 l-80
    -8 0 -35 0 -35 65 -6 c145 -15 200 -49 219 -139 8 -35 11 -482 11 -1449 0
    -1168 2 -1400 14 -1410 34 -28 288 -56 511 -56 203 0 275 8 425 47 85 22 87
    22 194 73 244 114 423 318 494 563 38 130 45 177 44 298 0 165 -27 282 -98
    429 -161 331 -518 506 -854 419 -123 -32 -255 -101 -333 -175 -22 -22 -46 -39
    -54 -39 -11 0 -13 134 -13 773 0 588 -3 776 -12 785 -13 13 -22 13 -203 1z
    m797 -1486 c155 -56 312 -230 372 -413 43 -132 50 -184 50 -350 -1 -165 -7
    -214 -50 -358 -59 -197 -205 -363 -384 -435 -94 -38 -156 -49 -275 -50 -115 0
    -124 1 -173 28 -37 20 -62 43 -85 79 l-32 51 -3 600 c-2 330 0 610 3 621 7 30
    118 140 180 179 54 34 121 61 170 69 53 8 176 -3 227 -21z"></path>
    <path d="M1230 4285 c-166 -22 -272 -55 -425 -129 -218 -106 -390 -260 -532
    -475 -57 -86 -163 -297 -163 -325 0 -8 -4 -17 -9 -21 -5 -3 -12 -20 -16 -38
    -4 -17 -12 -50 -20 -72 -18 -55 -42 -174 -55 -270 -13 -105 -13 -415 1 -507
    13 -83 45 -228 61 -273 79 -223 180 -390 322 -530 39 -38 82 -79 96 -90 46
    -37 164 -113 225 -144 98 -49 116 -56 290 -111 117 -37 403 -50 551 -25 55 9
    113 20 129 25 250 74 389 153 546 309 88 89 195 232 218 295 16 41 48 34 60
    -12 31 -112 131 -271 233 -368 67 -64 191 -146 263 -175 17 -6 39 -15 50 -20
    22 -9 80 -24 160 -41 82 -17 357 -4 439 21 158 47 285 123 397 238 123 127
    190 249 241 438 21 80 17 413 -6 490 -75 251 -192 417 -381 540 -219 143 -469
    184 -755 125 -30 -6 -59 -16 -64 -21 -6 -5 -17 -9 -26 -9 -32 0 -167 -73 -245
    -132 -141 -108 -248 -256 -303 -423 -40 -123 -52 -190 -59 -325 -7 -133 -25
    -181 -125 -330 -140 -210 -327 -355 -540 -419 -265 -80 -515 -62 -744 55 -45
    22 -88 46 -95 52 -158 128 -231 209 -310 342 -47 78 -119 238 -119 263 0 7 -3
    17 -7 21 -18 18 -60 201 -83 366 -46 323 -10 699 93 960 32 84 115 240 136
    260 4 3 24 28 45 55 126 160 305 270 521 319 101 23 325 22 436 -3 205 -45
    343 -129 457 -278 65 -85 137 -227 172 -338 45 -141 44 -140 81 -140 l34 0 0
    425 0 425 -28 3 c-20 3 -35 -5 -60 -32 -19 -19 -46 -40 -61 -46 -50 -19 -142
    -11 -291 24 -354 84 -526 100 -735 71z m2246 -1221 c109 -23 178 -58 250 -129
    71 -69 121 -145 154 -230 12 -33 26 -69 30 -80 18 -44 40 -167 51 -279 20
    -201 -10 -433 -77 -603 -56 -142 -167 -273 -274 -325 -74 -35 -134 -48 -224
    -48 -148 0 -266 50 -362 151 -42 46 -124 167 -124 186 0 3 -6 19 -14 36 -54
    120 -79 271 -78 477 0 361 94 616 277 752 73 54 119 74 210 92 92 19 91 19
    181 0z"></path>
    <path d="M7061 3096 c-8 -9 -8 -21 -2 -38 8 -22 18 -26 70 -31 136 -15 196
    -77 291 -302 58 -135 62 -145 86 -205 9 -25 30 -73 46 -108 15 -35 28 -66 28
    -69 0 -3 6 -19 14 -36 7 -18 21 -52 31 -77 17 -41 43 -103 65 -155 4 -11 25
    -60 45 -110 20 -49 43 -106 51 -125 17 -39 24 -55 50 -120 15 -40 37 -93 64
    -155 4 -11 18 -45 30 -75 11 -30 25 -64 30 -75 41 -91 50 -117 50 -139 0 -23
    -58 -211 -80 -261 -5 -11 -39 -110 -76 -220 -70 -213 -108 -293 -172 -365 -74
    -85 -180 -115 -302 -87 -40 10 -69 12 -74 6 -6 -5 -13 -78 -16 -161 -7 -193
    -10 -188 112 -188 55 0 108 6 138 16 102 33 188 141 261 324 12 30 28 69 35
    87 8 17 14 35 14 40 0 5 25 86 55 179 73 223 131 402 195 604 29 91 56 174 60
    185 4 11 21 63 38 115 16 52 47 149 67 215 21 66 55 172 75 235 21 63 61 189
    90 280 29 91 59 179 66 197 8 17 14 36 14 43 0 24 64 197 97 265 73 148 160
    227 261 241 44 5 53 10 58 30 14 55 19 54 -296 54 -315 0 -310 1 -296 -54 4
    -18 15 -25 43 -31 65 -12 100 -40 118 -96 16 -46 16 -55 0 -127 -9 -42 -22
    -95 -30 -117 -7 -22 -28 -87 -45 -145 -18 -58 -43 -136 -55 -175 -13 -38 -33
    -104 -45 -145 -12 -41 -26 -84 -30 -95 -5 -11 -18 -54 -31 -95 -51 -171 -85
    -265 -94 -264 -11 1 -33 43 -65 124 -11 30 -25 64 -29 75 -5 11 -17 40 -27 65
    -9 25 -25 63 -34 85 -9 22 -23 56 -30 75 -7 19 -22 55 -32 80 -11 25 -23 54
    -28 65 -4 11 -18 45 -30 75 -11 30 -25 64 -30 75 -30 73 -80 198 -95 240 -10
    28 -22 55 -27 62 -5 6 -9 39 -10 72 -1 83 31 131 110 166 29 13 33 19 30 47
    l-3 33 -396 3 c-329 2 -398 0 -408 -12z"></path>
    </g>
  </symbol>

  <symbol id=colby-museum-logo viewBox="0 0 615.000000 900.000000">
    <title>Colby Museum Logo</title>
      <g transform="translate(0.000000,900.000000) scale(0.100000,-0.100000)"
  fill="#ffffff" stroke="none">
  <path d="M805 8311 c-112 -28 -182 -67 -260 -145 -113 -115 -165 -243 -165
  -414 0 -194 69 -340 221 -463 148 -121 401 -148 579 -62 70 33 160 106 160
  128 0 16 -81 85 -99 85 -7 0 -37 -22 -67 -48 -75 -67 -130 -85 -252 -80 -86 3
  -105 7 -163 35 -83 41 -151 112 -192 201 -27 59 -31 80 -35 174 -4 114 6 163
  55 262 32 63 109 137 181 172 52 26 67 28 172 29 126 0 161 -11 234 -75 18
  -17 38 -30 43 -30 18 0 103 71 103 85 0 16 -85 86 -132 111 -50 26 -181 54
  -248 53 -36 -1 -96 -9 -135 -18z"/>
  <path d="M2015 8311 c-109 -27 -182 -68 -261 -146 -146 -144 -205 -358 -154
  -554 61 -239 227 -392 461 -427 297 -44 549 104 641 378 17 50 21 88 22 188 0
  138 -12 190 -66 290 -122 220 -391 334 -643 271z m324 -156 c171 -86 259 -267
  232 -478 -19 -161 -130 -302 -275 -350 -67 -23 -221 -23 -278 0 -119 46 -203
  132 -252 255 -22 56 -26 82 -26 166 0 105 6 135 49 222 45 94 150 183 251 212
  14 4 75 6 135 4 97 -3 117 -6 164 -31z"/>
  <path d="M3052 8288 c-17 -17 -17 -1059 0 -1076 9 -9 93 -12 315 -12 289 0
  303 1 313 19 5 11 10 32 10 46 0 14 -5 35 -10 46 -10 18 -23 19 -236 19 -136
  0 -233 4 -245 10 -18 10 -19 26 -19 470 0 252 -3 465 -6 474 -8 20 -103 23
  -122 4z"/>
  <path d="M3965 8289 c-10 -15 -10 -1062 -1 -1077 10 -17 402 -16 481 2 135 29
  230 108 261 214 43 145 -43 307 -178 336 -37 8 -35 23 3 44 58 31 92 66 115
  117 63 135 -2 289 -146 348 -51 20 -74 22 -292 25 -171 2 -238 0 -243 -9z
  m466 -135 c114 -57 119 -207 10 -281 -39 -27 -105 -35 -236 -31 l-100 3 -3
  155 c-1 85 0 160 2 167 4 10 39 13 141 13 126 0 139 -2 186 -26z m3 -453 c21
  -7 57 -30 80 -51 l41 -39 0 -91 0 -92 -44 -39 c-57 -51 -91 -60 -242 -66 -181
  -7 -169 -21 -169 192 0 95 3 181 6 190 6 15 23 16 148 12 78 -2 158 -10 180
  -16z"/>
  <path d="M4904 8285 c-4 -9 65 -123 179 -293 102 -153 192 -293 201 -310 14
  -27 16 -66 16 -247 -1 -118 1 -219 5 -225 9 -14 108 -13 123 2 9 9 12 75 12
  238 l0 225 200 303 c111 166 198 307 195 312 -7 12 -134 13 -151 2 -6 -4 -42
  -54 -79 -112 -37 -58 -91 -141 -120 -185 -29 -44 -65 -102 -80 -128 -15 -26
  -32 -46 -38 -44 -11 3 -32 35 -153 232 -101 166 -136 219 -153 233 -22 18
  -150 16 -157 -3z"/>
  <path d="M4773 6930 c-221 -58 -379 -210 -444 -426 -31 -101 -31 -317 -1 -429
  42 -150 145 -292 280 -381 67 -45 230 -126 387 -193 217 -93 275 -151 275
  -276 0 -244 -310 -331 -501 -141 -38 38 -99 120 -99 134 0 4 -9 22 -20 40 -18
  29 -22 31 -43 21 -29 -16 -334 -246 -341 -258 -7 -10 14 -50 72 -141 109 -170
  231 -260 422 -315 51 -15 100 -19 235 -19 189 0 237 10 380 79 151 73 270 212
  321 374 75 238 33 537 -99 705 -104 132 -201 195 -467 302 -63 25 -124 50
  -135 54 -11 5 -36 15 -55 23 -56 23 -143 94 -165 135 -14 27 -19 55 -19 103 1
  56 6 74 30 110 71 105 235 118 371 30 53 -34 130 -120 146 -164 4 -9 13 -20
  21 -23 17 -6 356 241 356 260 0 20 -69 115 -137 186 -84 90 -183 155 -292 194
  -81 29 -96 31 -246 33 -130 2 -173 -1 -232 -17z"/>
  <path d="M455 6894 c-15 -15 -16 -112 -13 -1148 l3 -1131 208 0 208 0 0 838
  c1 460 4 837 9 837 5 0 11 -15 15 -32 17 -89 62 -290 75 -333 5 -16 16 -64 25
  -105 25 -114 97 -428 131 -570 9 -36 22 -94 31 -130 8 -36 21 -90 28 -120 8
  -30 28 -116 45 -190 17 -74 34 -148 38 -165 l8 -30 168 0 169 0 12 45 c7 25
  30 122 50 215 21 94 49 217 63 275 13 58 28 123 32 145 4 22 24 110 44 195 21
  85 41 173 45 195 5 22 20 94 35 160 25 113 34 152 71 308 8 34 17 79 21 100 3
  21 9 35 13 32 3 -4 6 -381 6 -838 l0 -832 210 0 210 0 3 1134 c1 830 -1 1137
  -9 1147 -9 11 -72 14 -315 14 -340 0 -313 6 -333 -76 -5 -22 -43 -172 -84
  -334 -181 -709 -209 -827 -222 -932 -13 -101 -37 -45 -85 197 -4 22 -31 130
  -60 240 -29 110 -56 216 -60 235 -4 19 -24 98 -45 175 -82 311 -98 372 -106
  414 -17 84 -4 81 -335 81 -257 0 -295 -2 -309 -16z"/>
  <path d="M2620 6891 c-7 -13 -10 -279 -10 -793 0 -948 5 -1000 101 -1195 115
  -232 349 -353 683 -353 164 0 261 20 383 81 180 89 286 240 334 476 18 86 19
  144 17 945 l-3 853 -235 0 -235 0 -6 -830 c-5 -874 -5 -874 -51 -955 -53 -97
  -97 -122 -211 -122 -142 -1 -216 57 -254 197 -10 40 -13 212 -13 863 0 548 -3
  819 -10 832 -10 19 -23 20 -245 20 -221 0 -235 -1 -245 -19z"/>
  <path d="M457 4333 c-4 -3 -7 -518 -7 -1143 0 -870 3 -1139 12 -1148 9 -9 176
  -12 689 -12 603 0 679 2 693 16 14 13 16 47 16 218 0 144 -3 205 -12 214 -9 9
  -124 12 -455 12 -430 0 -443 1 -453 20 -7 12 -9 101 -8 247 l3 228 410 5 410
  5 0 220 0 220 -410 5 c-225 3 -411 7 -413 8 -1 1 -1 100 0 220 l3 217 419 3
  c289 1 423 6 433 13 10 9 13 56 13 209 0 109 -3 205 -6 214 -6 14 -74 16 -668
  16 -365 0 -666 -3 -669 -7z"/>
  <path d="M1995 4317 c-4 -13 -4 -406 -2 -873 4 -817 5 -852 25 -924 26 -98 28
  -103 70 -188 68 -137 187 -242 338 -297 81 -29 271 -65 347 -65 81 0 254 35
  327 66 207 88 322 231 381 471 21 86 22 108 26 940 3 616 1 857 -7 872 -11 21
  -16 21 -243 19 l-232 -3 -6 -835 c-6 -899 -4 -876 -59 -970 -58 -100 -180
  -136 -303 -90 -58 22 -94 55 -123 110 -42 83 -43 118 -44 960 0 613 -3 809
  -12 818 -9 9 -77 12 -245 12 l-233 0 -5 -23z"/>
  <path d="M3717 4333 c-4 -3 -7 -518 -7 -1143 0 -870 3 -1139 12 -1148 19 -19
  382 -17 398 3 9 11 11 202 8 840 -2 639 0 825 9 825 7 0 15 -17 18 -37 3 -21
  7 -47 9 -58 3 -18 68 -299 101 -440 8 -33 24 -103 35 -155 12 -52 32 -140 45
  -195 13 -55 33 -143 45 -195 12 -52 32 -140 45 -195 13 -55 31 -134 40 -175
  39 -178 47 -206 63 -217 11 -9 60 -13 158 -13 160 0 169 3 179 68 4 20 11 51
  15 67 5 17 16 62 24 100 9 39 22 102 31 140 9 39 20 88 25 110 4 22 15 69 23
  105 8 36 27 119 41 185 14 66 33 147 41 180 7 33 21 94 30 135 9 41 23 103 31
  138 23 99 41 181 59 267 25 113 30 131 41 125 5 -3 8 -323 5 -796 -3 -730 -2
  -792 14 -807 14 -15 42 -17 204 -17 132 0 191 4 199 12 17 17 17 2269 0 2286
  -18 18 -601 17 -616 0 -10 -13 -57 -177 -73 -256 -5 -24 -11 -47 -14 -52 -3
  -5 -9 -28 -14 -52 -9 -43 -99 -404 -148 -593 -14 -55 -29 -118 -33 -140 -46
  -236 -73 -320 -84 -264 -24 124 -45 217 -78 349 -22 85 -43 173 -48 195 -4 22
  -45 184 -90 360 -45 176 -86 339 -91 362 -4 24 -15 56 -24 73 l-16 30 -303 0
  c-166 0 -306 -3 -309 -7z"/>
  <path d="M765 1740 c-91 -27 -135 -48 -192 -92 -133 -101 -212 -273 -213 -460
  -1 -240 111 -432 306 -525 86 -41 174 -57 279 -49 223 15 381 141 470 376 23
  60 32 239 16 322 -7 35 -30 99 -51 144 -110 229 -380 354 -615 284z m225 -124
  c197 -48 325 -245 307 -469 -8 -99 -30 -166 -80 -238 -181 -265 -572 -208
  -688 100 -30 81 -36 208 -14 296 57 229 262 363 475 311z"/>
  <path d="M1735 1718 c-3 -7 -4 -251 -3 -543 l3 -530 54 -3 c30 -2 58 1 63 6 5
  5 9 104 8 225 0 165 2 217 12 224 7 4 114 10 238 13 l225 5 3 53 c2 31 -2 60
  -9 68 -9 11 -53 14 -228 14 -155 0 -220 3 -229 12 -8 8 -12 58 -12 159 0 121
  3 150 16 163 13 14 50 16 254 16 156 0 241 4 245 11 13 20 9 101 -6 110 -8 5
  -153 9 -322 9 -237 0 -309 -3 -312 -12z"/>
  <path d="M3282 1718 c-10 -13 -201 -456 -287 -668 -24 -58 -70 -168 -103 -244
  -33 -77 -58 -146 -55 -153 4 -10 23 -13 72 -11 l66 3 18 39 c10 22 32 76 48
  120 17 44 35 86 41 93 8 10 67 13 254 13 l244 0 19 -37 c10 -21 31 -72 45
  -113 42 -117 45 -120 120 -120 73 0 81 8 59 60 -8 19 -40 96 -70 170 -30 74
  -76 185 -100 245 -25 61 -53 130 -63 155 -10 25 -43 108 -75 185 -32 77 -67
  163 -77 190 -28 72 -43 85 -98 85 -26 0 -52 -6 -58 -12z m78 -230 c10 -24 35
  -86 55 -138 45 -118 82 -213 103 -263 14 -33 14 -40 1 -48 -8 -5 -94 -9 -192
  -9 -151 0 -179 2 -184 15 -3 9 8 48 25 88 28 65 90 225 137 350 10 26 22 47
  26 47 5 0 18 -19 29 -42z"/>
  <path d="M4101 1711 c-16 -30 -15 -1043 1 -1059 17 -17 103 -15 117 2 8 10 11
  80 11 230 -1 118 1 220 5 226 3 5 37 10 76 10 80 0 82 -2 136 -102 90 -165
  120 -219 162 -293 l46 -80 73 -3 c53 -2 74 1 77 10 3 8 -53 111 -125 230 -71
  119 -130 225 -130 236 0 15 11 24 38 33 128 42 209 163 199 299 -8 117 -64
  201 -166 249 -55 25 -62 26 -283 29 -219 4 -227 3 -237 -17z m451 -129 c63
  -31 91 -77 92 -151 0 -68 -17 -104 -67 -145 -38 -30 -41 -31 -174 -36 -74 -3
  -143 -2 -154 2 -18 7 -19 19 -19 176 0 93 3 172 8 176 4 4 66 6 137 4 111 -3
  137 -6 177 -26z"/>
<path d="M4970 1711 c-11 -22 -13 -71 -4 -95 5 -14 29 -16 159 -16 115 0 155
-3 164 -13 7 -10 12 -156 13 -478 l3 -464 53 -3 c31 -2 60 2 68 9 12 10 14 86
14 469 0 367 3 460 13 468 8 7 73 13 163 14 l149 3 0 60 0 60 -392 3 c-380 2
-393 2 -403 -17z"/>
</g>
  </symbol>

  <symbol id=twitter-icon viewBox="0 0 1792 1792">
    <title>Colby College on Twitter</title>
    <path d="M1684 408q-67 98-162 167 1 14 1 42 0 130-38 259.5t-115.5 248.5-184.5 210.5-258 146-323 54.5q-271 0-496-145 35 4 78 4 225 0 401-138-105-2-188-64.5t-114-159.5q33 5 61 5 43 0 85-11-112-23-185.5-111.5t-73.5-205.5v-4q68 38 146 41-66-44-105-115t-39-154q0-88 44-163 121 149 294.5 238.5t371.5 99.5q-8-38-8-74 0-134 94.5-228.5t228.5-94.5q140 0 236 102 109-21 205-78-37 115-142 178 93-10 186-50z" fill="currentColor"/>
  </symbol>

  <symbol id=facebook-icon viewBox="0 0 1792 1792">
      <path d="M1343 12v264h-157q-86 0-116 36t-30 108v189h293l-39 296h-254v759h-306v-759h-255v-296h255v-218q0-186 104-288.5t277-102.5q147 0 228 12z" fill="currentColor"></path>
  </symbol>

  <symbol id=vimeo-icon viewBox="0 0 1792 1792">
    <title>Colby College on Vimeo</title>
    <path d="M1709 518q-10 236-332 651-333 431-562 431-142 0-240-263-44-160-132-482-72-262-157-262-18 0-127 76l-77-98q24-21 108-96.5t130-115.5q156-138 241-146 95-9 153 55.5t81 203.5q44 287 66 373 55 249 120 249 51 0 154-161 101-161 109-246 13-139-109-139-57 0-121 26 120-393 459-382 251 8 236 326z" fill="currentColor"/>
  </symbol>

  <symbol id=search-icon viewBox="0 0 1792 1792">
    <title>Search</title>
    <path d="M1216 832q0-185-131.5-316.5t-316.5-131.5-316.5 131.5-131.5 316.5 131.5 316.5 316.5 131.5 316.5-131.5 131.5-316.5zm512 832q0 52-38 90t-90 38q-54 0-90-38l-343-342q-179 124-399 124-143 0-273.5-55.5t-225-150-150-225-55.5-273.5 55.5-273.5 150-225 225-150 273.5-55.5 273.5 55.5 225 150 150 225 55.5 273.5q0 220-124 399l343 343q37 37 37 90z" fill="currentColor"/>
  </symbol>

  <symbol id=info-circle-icon viewBox="0 0 1792 1792">
    <path d="M1152 1376v-160q0-14-9-23t-23-9h-96v-512q0-14-9-23t-23-9h-320q-14 0-23 9t-9 23v160q0 14 9 23t23 9h96v320h-96q-14 0-23 9t-9 23v160q0 14 9 23t23 9h448q14 0 23-9t9-23zm-128-896v-160q0-14-9-23t-23-9h-192q-14 0-23 9t-9 23v160q0 14 9 23t23 9h192q14 0 23-9t9-23zm640 416q0 209-103 385.5t-279.5 279.5-385.5 103-385.5-103-279.5-279.5-103-385.5 103-385.5 279.5-279.5 385.5-103 385.5 103 279.5 279.5 103 385.5z" fill="currentColor"/>
  </symbol>

  <symbol id=map-marker-icon viewBox="0 0 1792 1792">
    <path d="M1152 640q0-106-75-181t-181-75-181 75-75 181 75 181 181 75 181-75 75-181zm256 0q0 109-33 179l-364 774q-16 33-47.5 52t-67.5 19-67.5-19-46.5-52l-365-774q-33-70-33-179 0-212 150-362t362-150 362 150 150 362z" fill="currentColor" />
  </symbol>

  <symbol id=newsletter-icon viewBox="0 0 1792 1792">
      <path d="M1664 1504v-768q-32 36-69 66-268 206-426 338-51 43-83 67t-86.5 48.5-102.5 24.5h-2q-48 0-102.5-24.5t-86.5-48.5-83-67q-158-132-426-338-37-30-69-66v768q0 13 9.5 22.5t22.5 9.5h1472q13 0 22.5-9.5t9.5-22.5zm0-1051v-24.5l-.5-13-3-12.5-5.5-9-9-7.5-14-2.5h-1472q-13 0-22.5 9.5t-9.5 22.5q0 168 147 284 193 152 401 317 6 5 35 29.5t46 37.5 44.5 31.5 50.5 27.5 43 9h2q20 0 43-9t50.5-27.5 44.5-31.5 46-37.5 35-29.5q208-165 401-317 54-43 100.5-115.5t46.5-131.5zm128-37v1088q0 66-47 113t-113 47h-1472q-66 0-113-47t-47-113v-1088q0-66 47-113t113-47h1472q66 0 113 47t47 113z" fill="currentColor"/>
  </symbol>

  <symbol id=instagram-icon viewBox="0 0 1792 1792">
      <path d="M1490 1426v-648h-135q20 63 20 131 0 126-64 232.5t-174 168.5-240 62q-197 0-337-135.5t-140-327.5q0-68 20-131h-141v648q0 26 17.5 43.5t43.5 17.5h1069q25 0 43-17.5t18-43.5zm-284-533q0-124-90.5-211.5t-218.5-87.5q-127 0-217.5 87.5t-90.5 211.5 90.5 211.5 217.5 87.5q128 0 218.5-87.5t90.5-211.5zm284-360v-165q0-28-20-48.5t-49-20.5h-174q-29 0-49 20.5t-20 48.5v165q0 29 20 49t49 20h174q29 0 49-20t20-49zm174-208v1142q0 81-58 139t-139 58h-1142q-81 0-139-58t-58-139v-1142q0-81 58-139t139-58h1142q81 0 139 58t58 139z" fill="currentColor"/>
  </symbol
</svg>
